<svg width="272" height="94" viewBox="0 0 272 94" fill="none" xmlns="http://www.w3.org/2000/svg">
<rect width="272" height="94" rx="10" fill="#010101"/>
<path d="M100.162 35H104.614C107.82 35 110.018 33.068 110.018 30.1C110.018 27.132 107.82 25.2 104.614 25.2H100.162V35ZM102.43 33.138V27.062H104.502C106.448 27.062 107.722 28.224 107.722 30.1C107.722 31.976 106.448 33.138 104.502 33.138H102.43ZM116.474 35.168C119.554 35.168 121.836 33.026 121.836 30.1C121.836 27.174 119.554 25.032 116.474 25.032C113.38 25.032 111.112 27.188 111.112 30.1C111.112 33.012 113.38 35.168 116.474 35.168ZM116.474 33.236C114.724 33.236 113.408 31.962 113.408 30.1C113.408 28.238 114.724 26.964 116.474 26.964C118.224 26.964 119.54 28.238 119.54 30.1C119.54 31.962 118.224 33.236 116.474 33.236ZM135.855 25.2L133.573 32.144L131.333 25.2H129.233L126.923 32.088L124.711 25.2H122.359L125.579 35H128.001L130.227 28.364L132.383 35H134.819L138.025 25.2H135.855ZM146.039 25.2V31.15L141.167 25.2H139.291V35H141.531V29.05L146.417 35H148.279V25.2H146.039ZM150.598 35H157.78V33.152H152.866V25.2H150.598V35ZM163.629 35.168C166.709 35.168 168.991 33.026 168.991 30.1C168.991 27.174 166.709 25.032 163.629 25.032C160.535 25.032 158.267 27.188 158.267 30.1C158.267 33.012 160.535 35.168 163.629 35.168ZM163.629 33.236C161.879 33.236 160.563 31.962 160.563 30.1C160.563 28.238 161.879 26.964 163.629 26.964C165.379 26.964 166.695 28.238 166.695 30.1C166.695 31.962 165.379 33.236 163.629 33.236ZM177.88 35H180.26L175.878 25.2H173.638L169.27 35H171.594L172.462 32.9H177.012L177.88 35ZM173.19 31.178L174.744 27.426L176.298 31.178H173.19ZM181.277 35H185.729C188.935 35 191.133 33.068 191.133 30.1C191.133 27.132 188.935 25.2 185.729 25.2H181.277V35ZM183.545 33.138V27.062H185.617C187.563 27.062 188.837 28.224 188.837 30.1C188.837 31.976 187.563 33.138 185.617 33.138H183.545ZM204.214 27.02V25.2H196.808V35H199.076V31.43H203.612V29.61H199.076V27.02H204.214ZM210.4 35.168C213.48 35.168 215.762 33.026 215.762 30.1C215.762 27.174 213.48 25.032 210.4 25.032C207.306 25.032 205.038 27.188 205.038 30.1C205.038 33.012 207.306 35.168 210.4 35.168ZM210.4 33.236C208.65 33.236 207.334 31.962 207.334 30.1C207.334 28.238 208.65 26.964 210.4 26.964C212.15 26.964 213.466 28.238 213.466 30.1C213.466 31.962 212.15 33.236 210.4 33.236ZM226.147 35L223.949 31.85C225.223 31.304 225.965 30.226 225.965 28.756C225.965 26.558 224.327 25.2 221.709 25.2H217.467V35H219.735V32.27H221.709H221.821L223.711 35H226.147ZM223.669 28.756C223.669 29.82 222.969 30.464 221.583 30.464H219.735V27.048H221.583C222.969 27.048 223.669 27.678 223.669 28.756Z" fill="white"/>
<path d="M113.144 61.1H104.694L103.082 65H98.766L106.878 46.8H111.038L119.176 65H114.756L113.144 61.1ZM111.818 57.902L108.932 50.934L106.046 57.902H111.818ZM137.756 46.8V65H134.298L125.224 53.95V65H121.064V46.8H124.548L133.596 57.85V46.8H137.756ZM142.062 46.8H150.33C152.306 46.8 154.048 47.1813 155.556 47.944C157.082 48.6893 158.26 49.7467 159.092 51.116C159.942 52.4853 160.366 54.08 160.366 55.9C160.366 57.72 159.942 59.3147 159.092 60.684C158.26 62.0533 157.082 63.1193 155.556 63.882C154.048 64.6273 152.306 65 150.33 65H142.062V46.8ZM150.122 61.542C151.942 61.542 153.39 61.0393 154.464 60.034C155.556 59.0113 156.102 57.6333 156.102 55.9C156.102 54.1667 155.556 52.7973 154.464 51.792C153.39 50.7693 151.942 50.258 150.122 50.258H146.274V61.542H150.122ZM175.139 65L171.629 59.93H171.421H167.755V65H163.543V46.8H171.421C173.033 46.8 174.428 47.0687 175.607 47.606C176.803 48.1433 177.721 48.906 178.363 49.894C179.004 50.882 179.325 52.052 179.325 53.404C179.325 54.756 178.995 55.926 178.337 56.914C177.695 57.8847 176.777 58.63 175.581 59.15L179.663 65H175.139ZM175.061 53.404C175.061 52.3813 174.731 51.6013 174.073 51.064C173.414 50.5093 172.452 50.232 171.187 50.232H167.755V56.576H171.187C172.452 56.576 173.414 56.2987 174.073 55.744C174.731 55.1893 175.061 54.4093 175.061 53.404ZM191.476 65.312C189.587 65.312 187.879 64.9047 186.354 64.09C184.846 63.2753 183.659 62.1573 182.792 60.736C181.943 59.2973 181.518 57.6853 181.518 55.9C181.518 54.1147 181.943 52.5113 182.792 51.09C183.659 49.6513 184.846 48.5247 186.354 47.71C187.879 46.8953 189.587 46.488 191.476 46.488C193.365 46.488 195.064 46.8953 196.572 47.71C198.08 48.5247 199.267 49.6513 200.134 51.09C201.001 52.5113 201.434 54.1147 201.434 55.9C201.434 57.6853 201.001 59.2973 200.134 60.736C199.267 62.1573 198.08 63.2753 196.572 64.09C195.064 64.9047 193.365 65.312 191.476 65.312ZM191.476 61.724C192.551 61.724 193.521 61.4813 194.388 60.996C195.255 60.4933 195.931 59.8 196.416 58.916C196.919 58.032 197.17 57.0267 197.17 55.9C197.17 54.7733 196.919 53.768 196.416 52.884C195.931 52 195.255 51.3153 194.388 50.83C193.521 50.3273 192.551 50.076 191.476 50.076C190.401 50.076 189.431 50.3273 188.564 50.83C187.697 51.3153 187.013 52 186.51 52.884C186.025 53.768 185.782 54.7733 185.782 55.9C185.782 57.0267 186.025 58.032 186.51 58.916C187.013 59.8 187.697 60.4933 188.564 60.996C189.431 61.4813 190.401 61.724 191.476 61.724ZM204.599 46.8H208.811V65H204.599V46.8ZM213.131 46.8H221.399C223.375 46.8 225.117 47.1813 226.625 47.944C228.15 48.6893 229.329 49.7467 230.161 51.116C231.01 52.4853 231.435 54.08 231.435 55.9C231.435 57.72 231.01 59.3147 230.161 60.684C229.329 62.0533 228.15 63.1193 226.625 63.882C225.117 64.6273 223.375 65 221.399 65H213.131V46.8ZM221.191 61.542C223.011 61.542 224.458 61.0393 225.533 60.034C226.625 59.0113 227.171 57.6333 227.171 55.9C227.171 54.1667 226.625 52.7973 225.533 51.792C224.458 50.7693 223.011 50.258 221.191 50.258H217.343V61.542H221.191Z" fill="white"/>
<path fill-rule="evenodd" clip-rule="evenodd" d="M43.693 36.6821C45.7325 36.6821 47.3859 38.3355 47.3859 40.375V53.8734C47.3859 55.913 45.7325 57.5663 43.693 57.5663C41.6534 57.5663 40 55.913 40 53.8734V40.375C40 38.3355 41.6534 36.6821 43.693 36.6821ZM81.7686 36.6821C83.8081 36.6821 85.4615 38.3355 85.4615 40.375V53.8734C85.4615 55.913 83.8081 57.5663 81.7686 57.5663C79.729 57.5663 78.0756 55.913 78.0756 53.8734V40.375C78.0756 38.3355 79.729 36.6821 81.7686 36.6821ZM57.3187 58.5851C59.3582 58.5851 61.0116 60.2385 61.0116 62.278V69.4093C61.0116 71.4488 59.3582 73.1022 57.3187 73.1022C55.2791 73.1022 53.6257 71.4488 53.6257 69.4093V62.278C53.6257 60.2385 55.2791 58.5851 57.3187 58.5851ZM68.1428 58.5851C70.1824 58.5851 71.8358 60.2385 71.8358 62.278V69.4093C71.8358 71.4488 70.1824 73.1022 68.1428 73.1022C66.1033 73.1022 64.4499 71.4488 64.4499 69.4093V62.278C64.4499 60.2385 66.1033 58.5851 68.1428 58.5851Z" fill="#A4C639"/>
<path d="M55.9179 24.5844L53.7531 20.5095L55.9179 24.5844ZM69.4163 24.5844L71.7084 20.5095Z" fill="black"/>
<path fill-rule="evenodd" clip-rule="evenodd" d="M71.9582 20.0655C72.2034 20.2034 72.2903 20.514 72.1524 20.7592L69.8602 24.8342C69.7223 25.0794 69.4117 25.1663 69.1665 25.0284C68.9214 24.8905 68.8344 24.5799 68.9723 24.3347L71.2645 20.2597C71.4024 20.0145 71.713 19.9276 71.9582 20.0655ZM54.2029 20.2705L56.3677 24.3455L55.4681 24.8234L53.3032 20.7484L54.2029 20.2705Z" fill="#A4C639"/>
<path fill-rule="evenodd" clip-rule="evenodd" d="M62.7944 23.0563C53.1163 23.0563 48.1499 30.6969 48.1499 36.4274H77.3115C77.3115 30.4422 71.9631 23.1837 62.7944 23.0563ZM48.1499 37.7008V58.5851C48.1499 60.6226 49.8054 62.278 51.7155 62.278H73.6185C75.656 62.278 77.3115 60.6226 77.3115 58.5851V37.7008H48.1499ZM56.0452 31.079C56.6782 31.079 57.1913 30.5658 57.1913 29.9329C57.1913 29.2999 56.6782 28.7868 56.0452 28.7868C55.4122 28.7868 54.8991 29.2999 54.8991 29.9329C54.8991 30.5658 55.4122 31.079 56.0452 31.079ZM70.5623 29.9329C70.5623 30.5658 70.0492 31.079 69.4162 31.079C68.7833 31.079 68.2701 30.5658 68.2701 29.9329C68.2701 29.2999 68.7833 28.7868 69.4162 28.7868C70.0492 28.7868 70.5623 29.2999 70.5623 29.9329Z" fill="#A4C639"/>
</svg>
